<svg width="48" height="49" viewBox="0 0 48 49" fill="none" xmlns="http://www.w3.org/2000/svg">
<path d="M22 30.5H26C27.0609 30.5 28.0783 30.0786 28.8284 29.3284C29.5786 28.5783 30 27.5609 30 26.5C30 25.4391 29.5786 24.4217 28.8284 23.6716C28.0783 22.9214 27.0609 22.5 26 22.5H20C18.8 22.5 17.8 22.9 17.2 23.7L6 34.5" stroke="black" stroke-width="3" stroke-linecap="round" stroke-linejoin="round"/>
<path d="M14 42.5L17.2 39.7C17.8 38.9 18.8 38.5 20 38.5H28C30.2 38.5 32.2 37.7 33.6 36.1L42.8 27.3C43.5718 26.5707 44.0222 25.5646 44.0522 24.5031C44.0822 23.4417 43.6893 22.4118 42.96 21.64C42.2307 20.8682 41.2246 20.4178 40.1631 20.3878C39.1017 20.3578 38.0718 20.7507 37.3 21.48L28.9 29.28" stroke="black" stroke-width="3" stroke-linecap="round" stroke-linejoin="round"/>
<path d="M4 32.5L16 44.5" stroke="black" stroke-width="3" stroke-linecap="round" stroke-linejoin="round"/>
<path d="M32.0002 24.3C35.2034 24.3 37.8002 21.7032 37.8002 18.5C37.8002 15.2967 35.2034 12.7 32.0002 12.7C28.7969 12.7 26.2002 15.2967 26.2002 18.5C26.2002 21.7032 28.7969 24.3 32.0002 24.3Z" stroke="black" stroke-width="3" stroke-linecap="round" stroke-linejoin="round"/>
<path d="M12 16.5C15.3137 16.5 18 13.8137 18 10.5C18 7.18629 15.3137 4.5 12 4.5C8.68629 4.5 6 7.18629 6 10.5C6 13.8137 8.68629 16.5 12 16.5Z" stroke="black" stroke-width="3" stroke-linecap="round" stroke-linejoin="round"/>
</svg>
