<svg width="48" height="49" viewBox="0 0 48 49" fill="none" xmlns="http://www.w3.org/2000/svg">
<path d="M23.0499 5.09C23.1376 4.91292 23.273 4.76387 23.4408 4.65965C23.6087 4.55544 23.8024 4.50021 23.9999 4.50021C24.1975 4.50021 24.3912 4.55544 24.559 4.65965C24.7269 4.76387 24.8623 4.91292 24.9499 5.09L29.5699 14.448C29.8743 15.0639 30.3236 15.5968 30.8792 16.0009C31.4348 16.405 32.0802 16.6682 32.7599 16.768L43.0919 18.28C43.2877 18.3084 43.4716 18.3909 43.6229 18.5184C43.7742 18.6459 43.8868 18.8131 43.948 19.0012C44.0092 19.1893 44.0165 19.3908 43.9691 19.5829C43.9217 19.7749 43.8216 19.9499 43.6799 20.088L36.2079 27.364C35.7152 27.8442 35.3465 28.437 35.1336 29.0913C34.9207 29.7456 34.8701 30.4418 34.9859 31.12L36.7499 41.4C36.7845 41.5957 36.7634 41.7971 36.6889 41.9814C36.6145 42.1656 36.4898 42.3252 36.329 42.442C36.1683 42.5588 35.9779 42.628 35.7797 42.6418C35.5814 42.6556 35.3833 42.6134 35.2079 42.52L25.9719 37.664C25.3634 37.3445 24.6863 37.1775 23.9989 37.1775C23.3116 37.1775 22.6345 37.3445 22.0259 37.664L12.7919 42.52C12.6166 42.6128 12.4187 42.6546 12.2208 42.6405C12.0229 42.6264 11.833 42.5571 11.6725 42.4404C11.5121 42.3237 11.3876 42.1644 11.3132 41.9804C11.2389 41.7965 11.2177 41.5954 11.2519 41.4L13.0139 31.122C13.1303 30.4435 13.0799 29.7468 12.867 29.0921C12.6541 28.4374 12.2852 27.8443 11.7919 27.364L4.31994 20.09C4.17712 19.9521 4.07592 19.7768 4.02786 19.5841C3.9798 19.3915 3.98681 19.1892 4.04809 19.0004C4.10938 18.8115 4.22247 18.6437 4.37449 18.516C4.52651 18.3883 4.71134 18.3058 4.90794 18.278L15.2379 16.768C15.9185 16.669 16.5647 16.4061 17.1211 16.002C17.6775 15.5978 18.1273 15.0645 18.4319 14.448L23.0499 5.09Z" stroke="black" stroke-width="3" stroke-linecap="round" stroke-linejoin="round"/>
</svg>
